<?xml version="1.0" encoding="UTF-8"?>
<!DOCTYPE svg PUBLIC "-//W3C//DTD SVG 1.1//EN" "http://www.w3.org/Graphics/SVG/1.1/DTD/svg11.dtd">
<!-- Creator: CorelDRAW -->
<svg xmlns="http://www.w3.org/2000/svg" xml:space="preserve" width="43.3492mm" height="43.3492mm" version="1.1" style="shape-rendering:geometricPrecision; text-rendering:geometricPrecision; image-rendering:optimizeQuality; fill-rule:evenodd; clip-rule:evenodd"
viewBox="0 0 4335 4335"
 xmlns:xlink="http://www.w3.org/1999/xlink">
 <defs>
  <style type="text/css">
   <![CDATA[
    .fil0 {fill:#4D4D4D}
    .fil4 {fill:#D9F2F2}
    .fil2 {fill:#F1F1F1}
    .fil1 {fill:#F3A766}
    .fil3 {fill:#FF700D}
   ]]>
  </style>
 </defs>
 <g id="Layer_x0020_1">
  <metadata id="CorelCorpID_0Corel-Layer"/>
  <path class="fil0" d="M2758 3946l-1184 0c-42,0 -74,-31 -74,-74l0 -782c0,-95 114,-74 207,-74l330 -405 -273 0c-28,0 -81,-10 -113,-91l-130 -427 -239 0c-60,0 -110,-45 -110,-105l0 -226 -493 0 0 110c0,151 -123,274 -275,274 -148,0 -271,-123 -271,-271l0 -560c0,-35 28,-63 64,-63l144 0 0 -346 -278 0c-84,0 -84,-126 0,-126l690 0c85,0 83,126 -3,126l-282 0 0 346 148 0c35,0 63,28 63,63l0 321 493 0 0 -222c0,-60 50,-110 110,-110l1761 0c60,0 109,50 109,110l0 222 504 0 0 -321c0,-35 28,-63 63,-63l145 0 0 -346 -282 0c-84,0 -84,-126 0,-126l690 0c85,0 81,126 0,126l-282 0 0 346 152 0c35,0 63,28 63,63l0 557c-7,151 -130,274 -278,274 -148,0 -271,-123 -271,-271l0 -113 -504 0 0 226c0,60 -49,105 -109,105l-240 0 -130 423c-11,60 -53,95 -106,95l-265 0 333 405 123 0c38,0 73,36 73,74l0 782c4,39 -31,74 -73,74zm-286 -2821c-61,0 -104,-127 -306,-127 -235,0 -267,191 -349,109 -25,-25 -25,-63 0,-88 193,-196 508,-189 697,0 40,40 11,106 -42,106zm180 -173c-14,0 -32,-7 -42,-17 -244,-244 -638,-244 -881,0 -58,58 -146,-30 -88,-89 289,-288 764,-288 1053,0 43,43 5,106 -42,106zm-1113 -183c-53,0 -82,-66 -43,-106 370,-366 973,-366 1339,0 58,58 -30,147 -88,88 -321,-320 -842,-320 -1166,0 -11,11 -25,18 -42,18zm2237 1103c0,194 295,194 295,0l0 -497 -295 0 0 497zm-3520 -497l0 497c0,194 296,194 296,0l0 -497 -296 0zm2780 53l-1737 0 0 542 271 0c29,0 50,18 60,42l145 476 785 0c0,-21 128,-419 145,-476 7,-24 31,-42 60,-42l271 0 0 -542zm-870 2307c-141,0 -254,-113 -254,-254 0,-141 113,-253 254,-253 141,0 253,112 253,253 0,138 -112,254 -253,254zm0 -387c-174,0 -170,260 0,260 171,0 171,-260 0,-260zm-302 -332l608 0 -303 -366 -305 366zm-241 807l1085 0 0 -683 -1085 0 0 683z"/>
  <path class="fil1" d="M1775 2488l785 0c0,-21 128,-419 145,-476 7,-24 31,-42 60,-42l271 0 0 -542 -1737 0 0 542 271 0c29,0 50,18 60,42l145 476z"/>
  <polygon class="fil2" points="2169,2650 1864,3016 2472,3016 "/>
  <path class="fil3" d="M2708 3140l-1085 0 0 683 1085 0 0 -683zm-542 88c141,0 253,112 253,253 0,138 -112,254 -253,254 -141,0 -254,-113 -254,-254 0,-141 113,-253 254,-253z"/>
  <path class="fil4" d="M2166 3608c171,0 171,-260 0,-260 -174,0 -170,260 0,260z"/>
  <path class="fil1" d="M3776 1375l0 497c0,194 295,194 295,0l0 -497 -295 0z"/>
  <path class="fil1" d="M552 1872l0 -497 -296 0 0 497c0,194 296,194 296,0z"/>
 </g>
</svg>
