<?xml version="1.0" encoding="utf-8"?>
<!-- Generator: Adobe Illustrator 24.1.0, SVG Export Plug-In . SVG Version: 6.00 Build 0)  -->
<svg version="1.1" id="Layer_1_7_" xmlns="http://www.w3.org/2000/svg" xmlns:xlink="http://www.w3.org/1999/xlink" x="0px" y="0px"
	 viewBox="0 0 48 48" style="enable-background:new 0 0 48 48;" xml:space="preserve">
<path d="M33.929,39L39,33.929V28c-1.654,0-3-1.346-3-3v-2c0-1.654,1.346-3,3-3v-5.929L33.929,9H28c0,1.654-1.346,3-3,3h-2
	c-1.654,0-3-1.346-3-3h-5.929L9,14.071V20h0c1.654,0,3,1.346,3,3v2c0,1.654-1.346,3-3,3h0v5.929L14.071,39H20c0-1.654,1.346-3,3-3h2
	c1.654,0,3,1.346,3,3H33.929z M27,35c-0.553,0-1-0.447-1-1v-7h-4v7c0,0.553-0.447,1-1,1h-4c-0.553,0-1-0.447-1-1V14
	c0-0.553,0.447-1,1-1h4c0.553,0,1,0.447,1,1v7h4v-7c0-0.553,0.447-1,1-1h4c0.553,0,1,0.447,1,1v20c0,0.553-0.447,1-1,1H27z
	 M34.343,7H28V4h7.379c0.398,0,0.779,0.158,1.061,0.439l7.121,7.121C43.842,11.842,44,12.224,44,12.621V20h-3v-6.343
	c0-0.266-0.105-0.52-0.293-0.707L35.05,7.293C34.863,7.105,34.609,7,34.343,7z M28,15h2v18h-2v-7c0-0.553-0.447-1-1-1h-6
	c-0.553,0-1,0.447-1,1v7h-2V15h2v7c0,0.553,0.447,1,1,1h6c0.553,0,1-0.447,1-1V15z M41,28h3v7.379c0,0.398-0.158,0.779-0.439,1.061
	l-7.121,7.121C36.158,43.842,35.777,44,35.379,44H28v-3h6.343c0.266,0,0.52-0.105,0.707-0.293l5.657-5.657
	C40.895,34.862,41,34.608,41,34.343V28z M13.657,41H20v3h-7.379c-0.398,0-0.779-0.158-1.061-0.439L4.44,36.439
	C4.158,36.158,4,35.776,4,35.379V28h3v6.343c0,0.266,0.105,0.52,0.293,0.707l5.657,5.657C13.138,40.895,13.392,41,13.657,41z M7,20
	H4v-7.379c0-0.398,0.158-0.779,0.439-1.061l7.121-7.121C11.842,4.158,12.224,4,12.622,4H20v3h-6.343
	c-0.266,0-0.52,0.105-0.707,0.293L7.293,12.95C7.106,13.138,7,13.392,7,13.657V20z M46,23v2c0,0.552-0.448,1-1,1h-6
	c-0.552,0-1-0.448-1-1v-2c0-0.552,0.448-1,1-1h6C45.553,22,46,22.448,46,23z M22,9V3c0-0.552,0.448-1,1-1h2c0.552,0,1,0.448,1,1v6
	c0,0.552-0.448,1-1,1h-2C22.448,10,22,9.552,22,9z M9,26H3c-0.552,0-1-0.448-1-1v-2c0-0.552,0.448-1,1-1h6c0.552,0,1,0.448,1,1v2
	C10,25.552,9.553,26,9,26z M26,39v6c0,0.552-0.448,1-1,1h-2c-0.552,0-1-0.448-1-1v-6c0-0.552,0.448-1,1-1h2
	C25.553,38,26,38.448,26,39z"/>
</svg>
